# Blender 4.0.2
# www.blender.org
mtllib Grip1.mtl
o Cube
v 1.000000 1.000000 -1.000000
v 1.000000 -0.020152 -1.000000
v 1.000000 1.000000 1.000000
v 1.000000 -0.020152 1.000000
v -1.000000 1.000000 -1.000000
v -1.000000 -0.020152 -1.000000
v -1.000000 1.000000 1.000000
v -1.000000 -0.020152 1.000000
vn -0.0000 1.0000 -0.0000
vn -0.0000 -0.0000 1.0000
vn -1.0000 -0.0000 -0.0000
vn -0.0000 -1.0000 -0.0000
vn 1.0000 -0.0000 -0.0000
vn -0.0000 -0.0000 -1.0000
vt 1.024968 1.024879
vt -0.024845 1.024879
vt -0.024845 -0.024934
vt 1.024968 -0.024934
vt 1.024968 -0.008927
vt 1.024968 1.003950
vt -0.024845 1.026097
vt -0.024845 -0.016309
vt -0.027428 -0.023523
vt -0.027428 1.023467
vt 1.024968 1.026050
vt 1.024968 -0.023523
s 0
usemtl Material
f 1/1/1 5/2/1 7/3/1 3/4/1
f 4/5/2 3/6/2 7/7/2 8/8/2
f 8/9/3 7/10/3 5/11/3 6/12/3
f 6/2/4 2/1/4 4/4/4 8/3/4
f 2/5/5 1/6/5 3/7/5 4/8/5
f 6/8/6 5/7/6 1/6/6 2/5/6
