# Blender 4.0.2
# www.blender.org
mtllib Base.mtl
o turretBase
v 0.482788 0.012710 1.280284
v 0.254073 0.012710 -1.427140
v 1.333873 1.092467 -0.923663
v 1.333874 1.092466 0.923661
v 0.482788 1.146621 1.280283
v 0.254073 1.146621 -1.427140
v 1.333874 0.066865 -0.923662
v 1.333874 0.066864 0.923662
v 1.276169 1.146621 0.977816
v 1.276168 1.146621 -0.977817
v 1.276169 0.012710 0.977816
v 1.276169 0.012710 -0.977817
v 0.254073 0.012710 -2.080842
v 0.254073 1.146621 -1.665491
v 1.647017 0.020660 0.490607
v 1.333873 0.999058 0.490607
v 1.337529 0.020660 0.490607
v 1.333873 0.999058 -0.148706
v 1.647017 0.020659 0.833502
v 1.654715 0.020660 -0.148706
v 1.337529 0.020659 0.833502
v 1.333873 0.999057 0.833502
v 1.647017 0.079678 0.490607
v 1.337529 0.079678 0.490607
v 1.337529 0.079678 0.833502
v 1.647017 0.079678 0.833502
v 1.337529 0.020660 -0.148706
v 1.654715 0.020660 0.194189
v 1.337529 0.020660 0.194189
v 1.333873 0.999058 0.194190
v 1.654715 0.079678 -0.148706
v 1.337529 0.079678 -0.148706
v 1.337529 0.079678 0.194189
v 1.654715 0.079678 0.194189
v 1.647017 0.020660 -0.816358
v 1.333873 0.999058 -0.816358
v 1.337529 0.020660 -0.816358
v 1.647017 0.020660 -0.473463
v 1.337529 0.020660 -0.473463
v 1.333873 0.999058 -0.473463
v 1.647017 0.079678 -0.816358
v 1.337529 0.079678 -0.816358
v 1.337529 0.079678 -0.473463
v 1.647017 0.079678 -0.473463
v -0.482788 0.012710 1.280284
v -0.254073 0.012710 -1.427140
v -1.333873 1.092467 -0.923663
v -1.333874 1.092466 0.923661
v -0.482788 1.146621 1.280283
v -0.254073 1.146621 -1.427140
v -1.333874 0.066865 -0.923662
v -1.333874 0.066864 0.923662
v 0.000000 0.012710 1.280284
v 0.000000 0.012710 -1.427139
v 0.000000 1.146621 1.280284
v 0.000000 1.146621 -1.427140
v -1.276169 1.146621 0.977816
v -1.276168 1.146621 -0.977817
v -1.276169 0.012710 0.977816
v -1.276169 0.012710 -0.977817
v -0.254073 0.012710 -2.080842
v -0.254073 1.146621 -1.665491
v 0.000000 0.012710 -2.080842
v 0.000000 1.146621 -1.665490
v -1.647017 0.020660 0.490607
v -1.333873 0.999058 0.490607
v -1.337529 0.020660 0.490607
v -1.333873 0.999058 -0.148706
v -1.647017 0.020659 0.833502
v -1.654715 0.020660 -0.148706
v -1.337529 0.020659 0.833502
v -1.333873 0.999057 0.833502
v -1.647017 0.079678 0.490607
v -1.337529 0.079678 0.490607
v -1.337529 0.079678 0.833502
v -1.647017 0.079678 0.833502
v -1.337529 0.020660 -0.148706
v -1.654715 0.020660 0.194189
v -1.337529 0.020660 0.194189
v -1.333873 0.999058 0.194190
v -1.654715 0.079678 -0.148706
v -1.337529 0.079678 -0.148706
v -1.337529 0.079678 0.194189
v -1.654715 0.079678 0.194189
v -1.647017 0.020660 -0.816358
v -1.333873 0.999058 -0.816358
v -1.337529 0.020660 -0.816358
v -1.647017 0.020660 -0.473463
v -1.337529 0.020660 -0.473463
v -1.333873 0.999058 -0.473463
v -1.647017 0.079678 -0.816358
v -1.337529 0.079678 -0.816358
v -1.337529 0.079678 -0.473463
v -1.647017 0.079678 -0.473463
vn 1.0000 -0.0000 -0.0000
vn 0.4024 -0.0000 -0.9154
vn -0.0000 1.0000 -0.0000
vn -0.0000 -1.0000 -0.0000
vn 0.3562 -0.0000 0.9344
vn -0.0000 -0.0000 1.0000
vn 0.6843 0.7292 -0.0000
vn 0.6843 -0.7292 -0.0000
vn 0.6843 -0.0000 -0.7292
vn 0.6843 -0.0000 0.7292
vn -0.0000 0.3440 -0.9390
vn -0.0000 -0.0000 -1.0000
vn -1.0000 -0.0020 -0.0000
vn -1.0000 -0.0040 -0.0000
vn 0.9466 0.3224 -0.0000
vn -1.0000 -0.0000 -0.0000
vn 0.9442 0.3295 -0.0000
vn -0.4024 -0.0000 -0.9154
vn -0.3562 -0.0000 0.9344
vn -0.6843 0.7292 -0.0000
vn -0.6843 -0.7292 -0.0000
vn -0.6843 -0.0000 -0.7292
vn -0.6843 -0.0000 0.7292
vn 1.0000 -0.0020 -0.0000
vn 1.0000 -0.0040 -0.0000
vn -0.9466 0.3224 -0.0000
vn -0.9442 0.3295 -0.0000
vt 0.270070 0.902358
vt 0.269384 0.907840
vt 0.258433 0.907992
vt 0.259066 0.901075
vt 0.238386 0.918537
vt 0.236490 0.888486
vt 0.258538 0.900452
vt 0.257792 0.908545
vt 0.280379 0.915909
vt 0.269812 0.908340
vt 0.280611 0.895386
vt 0.270627 0.901914
vt 0.290935 0.887918
vt 0.293300 0.924212
vt 0.233468 0.917302
vt 0.223376 0.897764
vt 0.236623 0.924212
vt 0.233981 0.882481
vt 0.063220 0.893857
vt 0.073312 0.913396
vt 0.070219 0.918456
vt 0.054356 0.891665
vt 0.078230 0.914631
vt 0.076467 0.920305
vt 0.214512 0.895572
vt 0.214507 0.882475
vt 0.293306 0.882475
vt 0.293306 0.961275
vt 0.214507 0.961275
vt 0.054350 0.878569
vt 0.133150 0.878569
vt 0.133150 0.957368
vt 0.054350 0.957368
s 1
usemtl Material.002
f 8/1/1 7/4/1 3/3/1 4/2/1
f 6/5/2 10/8/2 12/7/2 2/6/2
f 5/9/3 9/10/3 10/8/3 6/5/3
f 2/6/4 12/7/4 11/12/4 1/11/4
f 1/11/5 11/12/5 9/10/5 5/9/5
f 5/9/6 55/14/6 53/13/6 1/11/6
f 2/6/1 13/16/1 14/15/1 6/5/1
f 5/9/3 6/5/3 56/17/3 55/14/3
f 1/11/4 53/13/4 54/18/4 2/6/4
f 3/3/7 10/8/7 9/10/7 4/2/7
f 8/1/8 11/12/8 12/7/8 7/4/8
f 7/4/9 12/7/9 10/8/9 3/3/9
f 4/2/10 9/10/10 11/12/10 8/1/10
f 13/19/11 63/22/11 64/21/11 14/20/11
f 6/23/3 14/20/3 64/21/3 56/24/3
f 54/18/4 63/25/4 13/16/4 2/6/4
f 23/26/12 24/28/12 16/27/12
f 24/26/13 25/29/13 22/28/14 16/27/14
f 25/26/6 26/28/6 22/27/6
f 26/30/15 23/33/15 16/32/15 22/31/15
f 17/26/4 15/29/4 19/28/4 21/27/4
f 31/26/12 32/28/12 18/27/12
f 19/26/1 15/29/1 23/28/1 26/27/1
f 21/26/6 19/29/6 26/28/6 25/27/6
f 17/26/16 21/29/16 25/28/13 24/27/13
f 15/26/12 17/29/12 24/28/12 23/27/12
f 32/26/13 33/29/13 30/28/14 18/27/14
f 33/26/6 34/28/6 30/27/6
f 34/30/17 31/33/17 18/32/17 30/31/17
f 27/26/4 20/29/4 28/28/4 29/27/4
f 28/26/1 20/29/1 31/28/1 34/27/1
f 29/26/6 28/29/6 34/28/6 33/27/6
f 27/26/16 29/29/16 33/28/13 32/27/13
f 20/26/12 27/29/12 32/28/12 31/27/12
f 41/26/12 42/28/12 36/27/12
f 42/26/13 43/29/13 40/28/14 36/27/14
f 43/26/6 44/28/6 40/27/6
f 44/30/15 41/33/15 36/32/15 40/31/15
f 37/26/4 35/29/4 38/28/4 39/27/4
f 38/26/1 35/29/1 41/28/1 44/27/1
f 39/26/6 38/29/6 44/28/6 43/27/6
f 37/26/16 39/29/16 43/28/13 42/27/13
f 35/26/12 37/29/12 42/28/12 41/27/12
f 52/1/16 48/2/16 47/3/16 51/4/16
f 50/5/18 46/6/18 60/7/18 58/8/18
f 49/9/3 50/5/3 58/8/3 57/10/3
f 46/6/4 45/11/4 59/12/4 60/7/4
f 45/11/19 49/9/19 57/10/19 59/12/19
f 49/9/6 45/11/6 53/13/6 55/14/6
f 46/6/16 50/5/16 62/15/16 61/16/16
f 49/9/3 55/14/3 56/17/3 50/5/3
f 45/11/4 46/6/4 54/18/4 53/13/4
f 47/3/20 48/2/20 57/10/20 58/8/20
f 52/1/21 51/4/21 60/7/21 59/12/21
f 51/4/22 47/3/22 58/8/22 60/7/22
f 48/2/23 52/1/23 59/12/23 57/10/23
f 61/19/11 62/20/11 64/21/11 63/22/11
f 50/23/3 56/24/3 64/21/3 62/20/3
f 54/18/4 46/6/4 61/16/4 63/25/4
f 73/26/12 66/27/12 74/28/12
f 74/26/24 66/27/25 72/28/25 75/29/24
f 75/26/6 72/27/6 76/28/6
f 76/30/26 72/31/26 66/32/26 73/33/26
f 67/26/4 71/27/4 69/28/4 65/29/4
f 81/26/12 68/27/12 82/28/12
f 69/26/16 76/27/16 73/28/16 65/29/16
f 71/26/6 75/27/6 76/28/6 69/29/6
f 67/26/1 74/27/24 75/28/24 71/29/1
f 65/26/12 73/27/12 74/28/12 67/29/12
f 82/26/24 68/27/25 80/28/25 83/29/24
f 83/26/6 80/27/6 84/28/6
f 84/30/27 80/31/27 68/32/27 81/33/27
f 77/26/4 79/27/4 78/28/4 70/29/4
f 78/26/16 84/27/16 81/28/16 70/29/16
f 79/26/6 83/27/6 84/28/6 78/29/6
f 77/26/1 82/27/24 83/28/24 79/29/1
f 70/26/12 81/27/12 82/28/12 77/29/12
f 91/26/12 86/27/12 92/28/12
f 92/26/24 86/27/25 90/28/25 93/29/24
f 93/26/6 90/27/6 94/28/6
f 94/30/26 90/31/26 86/32/26 91/33/26
f 87/26/4 89/27/4 88/28/4 85/29/4
f 88/26/16 94/27/16 91/28/16 85/29/16
f 89/26/6 93/27/6 94/28/6 88/29/6
f 87/26/1 92/27/24 93/28/24 89/29/1
f 85/26/12 91/27/12 92/28/12 87/29/12
